<svg width="96" height="80" viewBox="0 0 96 80" fill="none" xmlns="http://www.w3.org/2000/svg">
<circle cx="48.264" cy="40" r="40" fill="white"/>
<path d="M39.654 44.218L39.925 47.43L39.0405 48.64L40.1532 61.4879L41.2377 62.5682L41.523 65.8956L40.5385 65.9818L34.6323 66.5004L33.6478 66.587L33.3625 63.2596L34.247 62.0065L33.8333 57.167L29.8956 57.5125L30.3092 62.3521L31.3938 63.4324L31.679 66.7598L30.6945 66.846L24.7883 67.3646L23.8038 67.4512L23.5185 64.1238L24.403 62.8707L23.2901 50.0228L22.2059 48.9856L21.9349 45.7736L22.9193 45.6871L28.8255 45.1687L29.81 45.0822L30.0811 48.2942L29.1966 49.5042L29.5674 53.8396L33.5051 53.4941L33.1341 49.1583L32.0498 48.1214L31.7788 44.9094L32.7633 44.8229L38.6695 44.3046L39.654 44.218ZM43.2491 39.8969L39.3116 40.2427L38.3271 40.3289L33.3909 40.761L29.4534 41.1069L28.4689 41.1931L22.5626 41.7117L21.5782 41.7983L17.6406 42.1438L17.983 46.1192L18.2541 49.3314L18.3825 50.8436L19.4668 51.8808L20.3228 61.7472L20.2942 61.7903L19.4382 62.986L19.5666 64.4551L19.8519 67.7824L20.1944 71.7578L24.132 71.4119L25.1162 71.3257L30.0527 70.8936L33.9901 70.5477L34.9746 70.4615L40.8808 69.9429L41.8654 69.8563L45.8028 69.5108L45.4604 65.5355L45.1752 62.2081L45.0468 60.7391L44.0054 59.7018L43.9625 59.6587L43.1064 49.7923L43.9909 48.5823L43.8628 47.0699L43.5914 43.8579L43.2491 39.8826V39.8969Z" fill="#010101"/>
<path d="M50.1542 43.296L50.4253 46.508L49.5408 47.718L50.6535 60.5659L51.7377 61.6462L52.023 64.9736L51.0387 65.0598L45.1323 65.5784L44.148 65.665L43.8625 62.3376L44.747 61.0845L43.6343 48.2363L42.5501 47.1994L42.279 43.9874L43.2633 43.9009L49.1697 43.3826L50.1542 43.296ZM53.7493 38.9749L49.8119 39.3207L48.8274 39.4069L42.9209 39.9256L41.9366 40.0121L37.9989 40.3577L38.3413 44.333L38.6123 47.5452L38.7408 49.0574L39.825 50.0946L40.6811 59.961L40.6527 60.0041L39.7966 61.1999L39.925 62.6689L40.2103 65.9962L40.5527 69.9716L44.4904 69.6257L45.4746 69.5395L51.3811 69.0209L52.3653 68.9346L56.3031 68.5888L55.9607 64.6134L55.6754 61.2861L55.547 59.8171L54.5054 58.7798L54.4628 58.7367L53.6067 48.8703L54.4912 47.6603L54.3628 46.1479L54.0917 42.9359L53.7493 38.9606V38.9749Z" fill="#010101"/>
<path d="M84.9503 40.2426L89.8723 57.1235H89.9723L91.1421 58.175L91.4274 61.5023L82.8961 62.2512L82.6108 58.9241L83.5808 57.671H83.6379L83.3953 56.5043L79.5718 56.8356L79.5149 58.1607L80.3281 59.1257L80.6134 62.4528L79.3007 62.5681L74.0508 63.0291L73.7653 59.7017L74.4788 58.4774L76.1193 41.0203L84.979 40.2426H84.9503ZM79.7573 53.1339L82.6676 52.8746L81.1126 45.2837L80.1284 45.3703L79.7573 53.1339ZM87.8607 35.9934L84.6367 36.2816L75.7769 37.0592L72.4955 37.3474L72.1818 40.6459L70.6268 57.2243L70.3558 57.6852L69.7136 58.7799L69.8278 60.0476L70.1131 63.3746L70.4555 67.3503L74.3932 67.0044L79.3294 66.5723L80.1997 66.5004L80.9558 66.4284L84.8932 66.0826L91.7984 65.4777L95.7359 65.1321L95.3935 61.1565L95.1082 57.8294L94.9798 56.2739L93.8243 55.2224L93.3535 54.7903L88.7881 39.1191L87.8752 35.9934H87.8607Z" fill="#010101"/>
<path d="M69.8423 41.5678L70.1133 44.7797L69.5283 45.7304L71.0407 63.2884L66.989 63.6485L65.7906 63.7494L64.8061 63.8356L59.9983 54.1852L59.342 54.2428L59.8699 60.3932L60.2407 60.8829L60.5262 64.2103L60.198 64.2391L54.9479 64.6998L54.6197 64.7286L54.3345 61.4016L54.6197 60.8541L53.45 47.2426L52.7081 46.3065L52.4371 43.0945L53.0931 43.0368L58.3433 42.5759L59.6559 42.4608L64.1355 52.1401L64.7919 52.0824L64.2782 46.1914L63.5508 45.3557L63.2797 42.1438L63.9358 42.0861L69.1859 41.6254L69.8423 41.5678ZM73.4373 37.2466L69.4999 37.5924L68.8435 37.6498L63.5934 38.1108L62.9371 38.1684L62.0813 38.2404L59.3278 38.4854L58.0151 38.6005L52.7652 39.0615L52.1089 39.1192L48.1711 39.4647L48.5135 43.44L48.7846 46.6523L48.8846 47.8477L49.6264 48.7839L50.5965 60.0331L50.3112 60.5805L50.4112 61.7471L50.6965 65.0745L51.0389 69.0498L54.9763 68.7042L55.3045 68.6754L60.5546 68.2145L60.8828 68.1856L64.05 67.912L65.1484 67.8112L66.1329 67.7247L67.3314 67.6239L71.3831 67.2638L75.3206 66.9182L74.9782 62.9426L73.58 46.6954L74.165 45.7447L74.0508 44.4339L73.7797 41.2219L73.4373 37.2466Z" fill="#010101"/>
<path d="M13.1751 46.2921C19.2955 46.2921 19.2099 48.6542 19.2099 48.6542L19.6521 53.7242L14.0453 53.8684L13.7886 50.8723C13.7886 50.8723 13.4176 50.0082 12.2763 50.0082C12.205 50.0082 12.1336 50.0082 12.0623 50.0082C10.7498 50.1235 10.1506 50.8435 10.3217 52.8457C10.493 54.8477 11.2634 63.7205 11.2634 63.7205C11.2634 63.7205 11.3775 65.031 12.9326 65.031C14.4876 65.031 13.1037 65.031 13.2036 65.031C15.0155 64.8728 14.8015 62.4528 14.8015 62.4528L14.5447 59.5578L20.1229 59.0392L20.7221 66.0394C20.7221 66.0394 18.6534 68.9058 12.7185 69.0929C12.5759 69.0929 12.4475 69.0929 12.3191 69.0929C6.72657 69.0929 5.45685 65.3049 5.25711 63.0291C5.05737 60.6956 4.21566 51.0451 4.21566 51.0451C4.21566 51.0451 4.8291 46.6089 12.0766 46.3064C12.4618 46.2921 12.8327 46.2776 13.1894 46.2776L13.1751 46.2921ZM13.1894 42.288C12.7756 42.288 12.3476 42.288 11.9196 42.3165C3.60217 42.6624 0.706069 47.6173 0.320875 50.4834L0.263794 50.93L0.306612 51.3764L1.34806 63.3604C1.49072 65.0168 2.03287 67.4077 3.78765 69.4964C5.1715 71.124 7.76805 73.0685 12.3476 73.0685C16.9272 73.0685 12.69 73.0685 12.8755 73.0685C20.3654 72.838 23.4184 69.1217 23.9463 68.3729L24.8166 67.1629L24.6882 65.6793L24.089 58.6791L23.9892 57.5844L23.6182 53.3643L23.1903 48.3661C23.1474 47.5738 22.8621 46.2056 21.6352 44.9236C19.9375 43.1521 17.184 42.288 13.2179 42.288H13.1894Z" fill="#010101"/>
<path d="M23.2329 64.066L24.1174 62.8274L23.0476 50.2963L21.9633 49.259L21.6351 45.4711L30.3236 44.7077L30.6515 48.4957L29.767 49.7057L30.0952 53.4651L33.2053 53.1913L32.8916 49.4321L31.8074 48.3949L31.4792 44.6069L40.1818 43.8435L40.4955 47.6315L39.611 48.827L40.6952 61.3727L41.7795 62.4385L42.1221 66.3418L33.4192 67.1052L33.0913 63.2018L33.9758 61.9632L33.6048 57.6852L30.4805 57.9591L30.8513 62.2368L31.9355 63.3026L32.2782 67.206L23.5753 67.9694L23.2329 64.066Z" fill="#E83525"/>
<path d="M39.7965 44.2899L40.0676 47.5019L39.1831 48.7119L40.2958 61.5597L41.38 62.6401L41.6655 65.9674L40.681 66.0537L34.7746 66.5723L33.7903 66.6588L33.5051 63.3315L34.3896 62.0784L33.9759 57.2389L30.0381 57.5844L30.4518 62.4242L31.5361 63.5043L31.8216 66.8316L30.8371 66.9182L24.9306 67.4365L23.9464 67.523L23.6611 64.1957L24.5456 62.9426L23.4327 50.0947L22.3485 49.0574L22.0774 45.8455L23.0619 45.7592L28.9681 45.2406L29.9526 45.1541L30.2237 48.366L29.3392 49.5761L29.71 53.9115L33.6477 53.566L33.2766 49.2305L32.1924 48.1933L31.9213 44.9813L32.9058 44.8948L38.812 44.3764L39.7965 44.2899ZM40.5384 43.3969L39.7252 43.4689L38.7407 43.5554L32.8345 44.074L31.85 44.1603L31.0368 44.2322L31.1082 45.0533L31.3792 48.2652L31.4079 48.5822L31.6361 48.7981L32.4921 49.6192L32.7632 52.8169L30.4663 53.0185L30.1952 49.8208L30.8942 48.8704L31.0797 48.6111L31.051 48.2941L30.78 45.0821L30.7087 44.2611L29.8955 44.333L28.911 44.4196L23.0048 44.9382L22.0204 45.0244L21.2072 45.0964L21.2785 45.9174L21.5496 49.1294L21.5781 49.4464L21.8064 49.6626L22.6624 50.4834L23.718 62.7121L23.0048 63.7059L22.8335 63.9509L22.8621 64.2534L23.1474 67.5807L23.2187 68.4015L24.0319 68.3295L25.0164 68.2433L30.9226 67.7247L31.9071 67.6381L32.7203 67.5661L32.649 66.7451L32.3637 63.418L32.335 63.1156L32.1211 62.8994L31.2508 62.0352L30.9371 58.3335L33.234 58.1319L33.5477 61.8336L32.8345 62.8275L32.6632 63.0722L32.6919 63.3746L32.9772 66.702L33.0485 67.523L33.8616 67.4511L34.8462 67.3645L40.7524 66.8459L41.7369 66.7597L42.55 66.6877L42.4787 65.8666L42.1935 62.5393L42.1648 62.2369L41.9508 62.0207L41.0805 61.1565L40.0247 48.9278L40.7239 47.9774L40.9095 47.7181L40.8808 47.4011L40.6097 44.1891L40.5384 43.368V43.3969Z" fill="white"/>
<path d="M43.5918 62.2799L44.4763 61.0268L43.392 48.4957L42.3078 47.473L41.9796 43.685L50.6822 42.9216L51.0104 46.7096L50.1114 47.9051L51.1956 60.4362L52.2802 61.5166L52.6225 65.4199L43.9199 66.1833L43.5918 62.2799Z" fill="#E83525"/>
<path d="M50.2968 43.368L50.5679 46.58L49.6834 47.79L50.796 60.6381L51.8805 61.7182L52.1658 65.0455L51.1813 65.1321L45.2751 65.6504L44.2906 65.7369L44.0053 62.4096L44.8898 61.1565L43.7769 48.3086L42.6927 47.2714L42.4216 44.0594L43.4061 43.9731L49.3123 43.4545L50.2968 43.368ZM51.0387 42.475L50.2255 42.5469L49.241 42.6335L43.3348 43.1521L42.3503 43.2383L41.5371 43.3103L41.6084 44.1314L41.8795 47.3433L41.9082 47.6603L42.1363 47.8765L42.9924 48.6973L44.048 60.926L43.3348 61.9198L43.1635 62.1649L43.1922 62.4673L43.4774 65.7946L43.5487 66.6154L44.3619 66.5434L45.3464 66.4572L51.2526 65.9386L52.2371 65.852L53.0503 65.7801L52.979 64.959L52.6937 61.632L52.665 61.3295L52.4511 61.1133L51.5808 60.2492L50.525 48.0204L51.2242 47.0697L51.4097 46.8104L51.3811 46.4937L51.11 43.2817L51.0387 42.4607V42.475Z" fill="white"/>
<path d="M73.4514 59.6729L74.1933 58.4198L75.8625 40.7035L85.407 39.8679L90.3432 56.821L91.6701 58.0311L92.0124 61.9344L82.6535 62.7555L82.3111 58.8521L83.3098 57.5701L83.1956 57.0084L80.0855 57.282L80.0427 58.0742L80.8416 59.0103L81.1698 62.8851L73.7941 63.5331L73.4659 59.6586L73.4514 59.6729ZM80.2995 52.7449L82.2824 52.5721L80.8987 45.8024L80.6419 45.8312L80.3137 52.7592L80.2995 52.7449Z" fill="#E83525"/>
<path d="M85.0931 40.3001L90.0151 57.1813H90.1151L91.2848 58.2328L91.5701 61.5598L83.0388 62.3089L82.7533 58.9816L83.7236 57.7287H83.7807L83.538 56.5618L79.7145 56.8931L79.6577 58.2182L80.4709 59.1835L80.7561 62.5105L79.4435 62.6259L74.1933 63.0868L73.9081 59.7595L74.6215 58.5352L76.2621 41.078L85.1218 40.3001H85.0931ZM79.9001 53.1914L82.8104 52.9323L81.2554 45.3415L80.2711 45.428L79.9001 53.1914ZM85.7207 39.4216L85.0505 39.4793L76.1907 40.257L75.506 40.3147L75.4347 41.0061L73.8083 58.2759L73.1804 59.3417L73.0522 59.5722L73.0807 59.8315L73.3659 63.1588L73.4372 63.9799L74.2504 63.9076L79.5006 63.447L80.8132 63.3316L81.6264 63.2596L81.5551 62.4386L81.2696 59.1112L81.2411 58.8522L81.0698 58.6503L80.4709 57.9446V57.671L82.8675 57.4548L82.0972 58.4775L81.8975 58.7368L81.9259 59.0681L82.2112 62.3954L82.2825 63.2165L83.0959 63.1443L91.6272 62.3954L92.4404 62.3235L92.3691 61.5024L92.0838 58.1751L92.0551 57.8438L91.8127 57.6279L90.6856 56.6052L85.8636 40.0842L85.6781 39.4359L85.7207 39.4216ZM80.7703 52.2841L80.9701 48.0494L81.8117 52.1975L80.7561 52.2841H80.7703Z" fill="white"/>
<path d="M54.0922 61.3869L54.3774 60.8397L53.2219 47.473L52.48 46.5368L52.1519 42.792L60.0697 42.086L64.4924 51.6645L64.0501 46.436L63.3082 45.6007L62.98 41.8413L70.3702 41.1787L70.6984 44.9524L70.1134 45.9031L71.6542 63.7347L64.7348 64.3541L59.97 54.7757L60.4408 60.3068L60.8258 60.7963L61.1539 64.6711L54.4201 65.2614L54.0922 61.3869Z" fill="#E83525"/>
<path d="M69.9992 41.6396L70.2703 44.8516L69.6852 45.8023L71.1974 63.3603L67.1457 63.7204L65.9472 63.8212L64.963 63.9075L60.1552 54.2573L59.4989 54.3147L60.0268 60.465L60.3976 60.9548L60.6829 64.2821L60.3547 64.311L55.1048 64.7719L54.7767 64.8005L54.4911 61.4734L54.7767 60.926L53.6066 47.3147L52.8648 46.3783L52.5937 43.1663L53.2501 43.1087L58.5002 42.6477L59.8126 42.5326L64.2925 52.2119L64.9488 52.1542L64.4351 46.2632L63.7074 45.4279L63.4364 42.2156L64.0927 42.1582L69.3429 41.6973L69.9992 41.6396ZM70.7411 40.7466L69.9276 40.8185L69.2715 40.8762L64.0214 41.3372L63.3651 41.3949L62.5519 41.4668L62.6232 42.2879L62.8943 45.4998L62.923 45.7734L63.1082 45.9751L63.6648 46.6088L63.9072 49.3598L60.5831 42.1725L60.3405 41.6396L59.77 41.6973L58.4573 41.8124L53.2072 42.2733L52.5511 42.331L51.7379 42.403L51.8092 43.224L52.0803 46.436L52.1087 46.6807L52.2656 46.8826L52.8506 47.6172L53.9777 60.7389L53.8064 61.0702L53.6924 61.2861V61.5311L54.0061 64.8582L54.0774 65.6792L54.8906 65.6073L55.2188 65.5784L60.4689 65.1175L60.7971 65.0886L61.6103 65.0167L61.539 64.1956L61.2537 60.8685V60.6235L61.0824 60.4362L60.8542 60.1483L60.5689 56.8929L64.2496 64.2821L64.5064 64.7862L65.0627 64.7431L66.0472 64.6565L67.2457 64.5557L71.2974 64.1956L72.1106 64.1236L72.0392 63.3026L70.5413 46.0182L70.9834 45.2982L71.1261 45.0677L71.0976 44.7939L70.8266 41.5819L70.7553 40.7609L70.7411 40.7466Z" fill="white"/>
<path d="M12.4477 69.5972C6.19892 69.5972 5.14321 65.0887 4.97199 63.1442L3.93054 51.1174V51.074C3.95907 50.8723 4.6724 46.2921 12.1909 45.9751C12.5761 45.9608 12.9613 45.9463 13.318 45.9463C16.2426 45.9463 18.2114 46.4649 19.1815 47.4876C19.7094 48.0348 19.7522 48.5534 19.7522 48.6973L20.223 54.1851L13.7888 54.3436L13.5034 51.0308C13.4178 50.8869 13.104 50.4691 12.3906 50.4691C11.6773 50.4691 12.2765 50.4691 12.2194 50.4691C11.235 50.5556 10.6929 50.9731 10.8498 52.86L11.7914 63.7347C11.8057 63.8932 11.9484 64.6712 13.0469 64.6712C14.1454 64.6712 13.1896 64.6712 13.2752 64.6712C14.6447 64.5558 14.5021 62.6258 14.5021 62.5539L14.2168 59.2554L20.6082 58.6648L21.2645 66.241L21.1789 66.3707C21.0933 66.5003 18.9247 69.4099 12.8614 69.5972C12.7188 69.5972 12.5761 69.5972 12.4477 69.5972Z" fill="#E83525"/>
<path d="M13.318 46.3641C19.4384 46.3641 19.3528 48.7261 19.3528 48.7261L19.7951 53.7964L14.1883 53.9403L13.9315 50.9443C13.9315 50.9443 13.5606 50.0801 12.4193 50.0801C12.3479 50.0801 12.2766 50.0801 12.2052 50.0801C10.8927 50.1955 10.2935 50.9154 10.4647 52.9176C10.6359 54.9199 11.4063 63.7924 11.4063 63.7924C11.4063 63.7924 11.5204 65.1032 13.0755 65.1032C14.6306 65.1032 13.2467 65.1032 13.3466 65.1032C15.1584 64.9447 14.9444 62.525 14.9444 62.525L14.6876 59.6297L20.2659 59.1111L20.8651 66.1113C20.8651 66.1113 18.7964 68.9777 12.8615 69.1648C12.7188 69.1648 12.5904 69.1648 12.462 69.1648C6.86953 69.1648 5.59981 65.3768 5.40006 63.101C5.20035 60.7675 4.35862 51.1173 4.35862 51.1173C4.35862 51.1173 4.97208 46.6808 12.2195 46.3783C12.6047 46.3641 12.9756 46.3495 13.3323 46.3495L13.318 46.3641ZM13.3323 45.5142C12.9614 45.5142 12.5762 45.5142 12.191 45.543C4.34435 45.8743 3.5882 50.786 3.54541 51.0019V51.1893L4.5726 63.173C4.67247 64.3684 5.05766 66.0825 6.27032 67.523C7.6542 69.1648 9.73713 69.9859 12.4478 69.9859C15.1584 69.9859 12.7331 69.9859 12.8758 69.9859C19.1388 69.7842 21.4215 66.7162 21.5213 66.5868L21.7068 66.3418L21.6783 66.0394L21.0791 59.0391L21.0077 58.2038L20.1803 58.2758L14.602 58.7944L13.7888 58.8664L13.8602 59.6874L14.117 62.5824C14.117 62.6401 14.2311 64.1668 13.261 64.2533C13.1896 64.2533 13.1326 64.2533 13.0612 64.2533C12.3907 64.2533 12.248 63.8932 12.2195 63.677L11.2779 52.8168C11.121 50.9731 11.6774 50.93 12.2623 50.8723C12.3051 50.8723 12.3622 50.8723 12.405 50.8723C12.8187 50.8723 13.0184 51.0596 13.1183 51.1747L13.3608 53.9834L13.4322 54.7614H14.2026L19.8093 54.6029L20.6796 54.574L20.6083 53.6956L20.166 48.6542C20.166 48.4237 20.0804 47.8043 19.4812 47.1706C18.4255 46.0616 16.3568 45.4999 13.318 45.4999L13.3323 45.5142Z" fill="white"/>
<path d="M40.5539 17.0845C42.1374 17.0845 43.664 17.7182 44.8909 18.9137C46.5317 20.5125 47.402 22.8891 47.2736 25.4531C47.0168 30.6096 44.6341 36.3276 40.5682 37.3071C40.126 37.4079 39.6552 37.4945 39.1987 37.5376C38.8847 37.5664 38.5852 37.5807 38.3142 37.5807C37.7149 37.5807 37.2299 37.5233 36.8731 37.4656C36.6591 39.2948 35.8601 45.0276 33.7488 47.5913C32.8501 48.686 31.5803 49.3773 30.2821 49.507C30.1537 49.507 30.011 49.5216 29.8826 49.5216C27.7426 49.5216 25.5741 47.9514 25.2459 44.3074C24.7609 38.8916 26.3017 28.2618 32.579 21.2327C32.7358 21.0742 36.2025 17.4734 39.9976 17.1277C40.1829 17.1133 40.3684 17.0989 40.5539 17.0989V17.0845ZM40.5539 14.4486C40.2971 14.4486 40.026 14.4486 39.7692 14.4918C35.0899 14.9239 31.1379 18.9425 30.6958 19.4035L30.6671 19.4323L30.6387 19.4611C27.5712 22.9034 25.2172 27.4839 23.8477 32.6981C22.7635 36.7885 22.3211 41.1097 22.635 44.5521C23.1058 49.824 26.6296 52.1861 29.8968 52.1861C33.1637 52.1861 30.3247 52.1861 30.5387 52.1572C32.5219 51.9702 34.4335 50.9329 35.7888 49.3054C37.6578 47.0441 38.6423 43.2416 39.1558 40.2312C39.2558 40.2312 39.3555 40.2312 39.441 40.2024C40.026 40.1447 40.6111 40.0582 41.1816 39.9142C46.7457 38.5746 49.6131 31.56 49.9129 25.6113C50.0839 22.2843 48.9142 19.1442 46.717 17.0125C45.0051 15.3561 42.8224 14.4486 40.5539 14.4486Z" fill="#010101"/>
<path d="M55.3056 42.7087C53.3795 42.7087 52.281 41.9165 51.6818 41.2537C50.7831 40.2456 50.3836 38.7908 50.5692 37.1344C50.6689 36.2414 51.0255 35.1756 51.4107 34.0376C51.4963 33.764 51.6105 33.4327 51.7247 33.0868C50.8973 34.2249 49.7273 35.4923 48.1865 36.4573C46.5459 37.48 45.4187 37.9409 44.52 37.9409C43.2503 37.9409 42.5084 37.0479 42.4371 36.1694L42.3516 35.2907L43.0363 34.729C43.0505 34.7147 44.8624 33.2311 46.6172 31.4739C47.4875 30.5951 47.8441 29.5436 48.0012 28.9099C47.5304 28.233 47.0451 27.1238 47.2022 25.626C47.4304 23.4221 49.3278 22.2698 51.0684 22.2698C52.8089 22.2698 52.3095 22.414 52.8089 22.7019C54.2356 23.4798 54.5066 24.8769 54.5066 26.0435C57.0604 26.8934 59.3857 28.5643 58.9149 31.0703C58.7438 31.9922 58.3728 33.0583 58.0304 34.0952C57.788 34.8155 57.417 35.8956 57.2743 36.6015C57.8307 36.3853 58.6438 35.7373 59.1291 34.3114C59.6283 32.8133 59.9423 30.6959 60.1991 28.9964C60.5557 26.5478 60.7268 25.5251 61.2976 24.8337C62.0679 23.8976 63.994 23.2782 65.2922 23.2782C66.5904 23.2782 67.1612 23.8111 67.4893 24.2432C67.7459 24.5887 68.117 25.309 67.803 26.3605C67.318 28.0026 66.034 33.62 65.6346 35.939C65.8201 35.8524 65.9769 35.7805 66.134 35.7085C66.8759 35.3772 67.318 35.1756 67.8459 35.1756C68.3738 35.1756 68.9873 35.4635 69.3154 35.939C69.5578 36.2991 69.7862 36.9328 69.4439 37.8113C68.9873 38.9924 67.0041 41.3259 64.2935 41.5707C64.1508 41.5707 64.0224 41.5852 63.8798 41.5852C62.7242 41.5852 61.811 41.1386 61.1263 40.5626C59.9994 41.441 58.2446 42.4637 56.0332 42.6653C55.7906 42.6942 55.5482 42.6942 55.3056 42.6942V42.7087Z" fill="#F9D040"/>
<path d="M51.0543 23.9407C51.4108 23.9407 51.739 24.0127 52.0101 24.1712C53.0656 24.7472 52.8517 26.1157 52.7946 27.3111C52.7946 27.3111 57.7452 28.377 57.2886 30.7824C56.832 33.1879 54.7491 37.1775 55.8904 38.0417C56.1615 38.2433 56.5039 38.3441 56.8891 38.3441C58.1589 38.3441 59.8566 37.2495 60.6556 34.8443C61.7114 31.7043 61.9111 26.6198 62.5246 25.8995C62.8811 25.4674 64.2793 24.9345 65.2636 24.9345C66.2481 24.9345 66.4194 25.1793 66.2052 25.8995C65.6918 27.6279 63.7656 35.9101 63.8656 36.9182C63.9225 37.5376 64.3078 37.8258 64.907 37.8258C65.5062 37.8258 65.7344 37.7104 66.2339 37.4945C67.047 37.1344 67.6034 36.8462 67.8315 36.8462C68.06 36.8462 68.0029 36.9471 67.9031 37.2206C67.6321 37.9266 66.1197 39.7415 64.1367 39.9286C64.0509 39.9286 63.9654 39.9286 63.8799 39.9286C62.0822 39.9286 61.3119 38.1571 61.3119 38.1571C61.3119 38.1571 59.2003 40.7208 55.8904 41.0235C55.6907 41.0378 55.4909 41.052 55.3199 41.052C52.5093 41.052 52.0385 38.9204 52.2098 37.3072C52.3951 35.6077 54.1072 32.1507 53.6648 31.1425C53.2227 30.1342 51.8387 29.587 51.8387 29.587C51.8387 29.587 50.4834 33.0868 47.3163 35.0602C45.747 36.0397 44.9338 36.2845 44.5057 36.2845C44.0777 36.2845 44.0493 36.0252 44.0493 36.0252C44.0493 36.0252 45.9181 34.4985 47.7586 32.6404C49.5989 30.7824 49.7132 28.4058 49.7132 28.4058C49.7132 28.4058 48.6289 27.4982 48.8142 25.7844C48.9426 24.5313 50.0555 23.9118 51.0398 23.9118L51.0543 23.9407ZM51.0398 20.5845C48.1436 20.5845 45.8325 22.6156 45.5331 25.4243C45.3759 26.8502 45.6899 28.0888 46.1891 29.0826C46.0465 29.4573 45.8041 29.8894 45.433 30.2784C43.7496 31.9779 42.009 33.4038 41.9806 33.4181L40.6111 34.5273L40.7679 36.2991C40.939 38.1714 42.5369 39.5687 44.4914 39.5687C46.446 39.5687 47.0168 39.0789 48.8571 37.9409C48.8713 39.655 49.4276 41.1817 50.4405 42.3197C51.254 43.2416 52.7519 44.3217 55.2912 44.3217C57.8307 44.3217 55.862 44.3217 56.1615 44.2786C58.1873 44.0912 59.8708 43.3424 61.1406 42.5356C61.9111 42.9389 62.8098 43.2128 63.8656 43.2128C64.9212 43.2128 64.2364 43.2128 64.422 43.1839C67.7602 42.8815 70.2569 40.1879 70.9561 38.373C71.5837 36.7311 71.0416 35.5357 70.6563 34.9594C70.0287 34.0232 68.9729 33.4615 67.8315 33.4615C66.6905 33.4615 67.7889 33.4615 67.7747 33.4615C68.3168 30.9552 69.0442 27.8729 69.3582 26.7782C69.7292 25.4963 69.5295 24.1854 68.7876 23.1916C68.331 22.5867 67.2752 21.5495 65.2636 21.5495C63.2522 21.5495 61.2977 22.1401 59.9992 23.7102C59.4 24.4305 59.1147 25.3089 58.8724 26.5766C58.3158 26.0435 57.5739 25.5251 56.6181 25.0642C56.4183 24.9634 56.2328 24.8768 56.0331 24.8049C55.8333 23.5086 55.2199 22.0827 53.5651 21.1751C52.809 20.7576 51.9388 20.5414 51.0398 20.5414V20.5845Z" fill="#010101"/>
<path d="M30.1393 49.5646C27.8853 49.7663 25.4458 48.2538 25.0889 44.365C24.6039 38.9492 26.1447 28.3192 32.422 21.2904C32.5788 21.1319 36.0458 17.5309 39.8406 17.1852C41.6241 17.0268 43.3644 17.6606 44.72 18.9857C46.3605 20.5844 47.2308 22.961 47.1024 25.525C46.8455 30.6815 44.4631 36.3998 40.3969 37.379C39.9548 37.4799 39.484 37.5664 39.0274 37.6095C38.0287 37.696 37.2155 37.6095 36.7021 37.5375C36.4879 39.3667 35.6892 45.0995 33.5775 47.6632C32.6788 48.7579 31.4091 49.4493 30.1109 49.5789L30.1393 49.5646Z" fill="#F9D040"/>
<path d="M39.8977 17.6895C43.5501 17.3582 46.86 20.7576 46.6173 25.5105C46.3749 30.2638 44.192 35.9678 40.2971 36.8894C39.8408 37.0047 39.3984 37.0624 38.999 37.1055C37.3868 37.2495 36.2884 36.9182 36.2884 36.9182C36.2884 36.9182 35.632 44.4082 33.2209 47.332C32.3651 48.3547 31.238 48.9598 30.0966 49.0607C27.9994 49.2477 25.9023 47.793 25.5883 44.3217C25.1033 38.9636 26.6441 28.5209 32.8072 21.6217C32.8072 21.6217 36.2455 18.0207 39.8977 17.6751V17.6895ZM39.8121 16.6668C35.846 17.0269 32.2509 20.7576 32.094 20.9158V20.9446C25.6883 28.1034 24.1188 38.8916 24.6183 44.4082C25.0033 48.6286 27.6997 50.285 30.2108 50.0545C31.6374 49.9248 33.0212 49.1615 34.0057 47.9657C36.0315 45.5029 36.8876 40.3464 37.1871 38.0851C37.7008 38.1425 38.3571 38.1713 39.1132 38.0851C39.8692 37.9986 40.0832 37.9554 40.554 37.8546C44.8483 36.8174 47.3734 30.8832 47.6444 25.5394C47.7873 22.8315 46.86 20.2966 45.1052 18.6113C43.6357 17.1853 41.7524 16.494 39.8263 16.6668H39.8121Z" fill="#040202"/>
<path d="M33.021 26.7638C33.021 26.7638 35.3037 22.5003 38.8703 21.1609C42.4228 19.8213 42.4941 27.9161 41.4096 30.7105C40.3254 33.5047 38.0714 34.3977 37.4008 34.4554L36.7445 34.5131L36.445 27.4552C36.445 27.4552 36.3595 26.447 35.061 26.908C33.7628 27.3686 32.8925 28.7948 32.6786 30.1631C32.4646 31.5313 32.322 42.1467 31.5372 43.4287C30.667 44.8547 29.0122 45.0132 28.7695 42.3341C28.5269 39.655 30.453 31.3731 33.0352 26.7495L33.021 26.7638Z" fill="#010101"/>
<path d="M65.178 21.6649C64.8927 21.6649 64.6075 21.6361 64.3364 21.5641C63.3661 21.3191 62.5245 20.628 62.0537 19.6772C61.6113 18.7986 61.5116 17.7615 61.7684 16.7677C62.2248 14.9528 63.7372 13.6853 65.4491 13.6853C67.1612 13.6853 66.0199 13.7141 66.2909 13.7861C67.2752 14.031 68.1026 14.7224 68.5734 15.673C69.0157 16.5516 69.1157 17.5887 68.8589 18.5825C68.4023 20.3975 66.8899 21.6649 65.178 21.6649Z" fill="#F5CF3D"/>
<path d="M65.4631 15.3273C65.606 15.3273 65.7487 15.3416 65.8913 15.3849C66.9756 15.6585 67.589 16.9116 67.275 18.1648C67.004 19.2594 66.1195 19.9939 65.1779 19.9939C64.2363 19.9939 64.8926 19.9796 64.75 19.9365C63.6657 19.6627 63.0523 18.4096 63.366 17.1565C63.637 16.0618 64.5215 15.3273 65.4631 15.3273ZM65.4631 12C62.9952 12 60.8267 13.7861 60.1846 16.3355C59.8422 17.7182 59.9848 19.1586 60.5983 20.3974C61.283 21.7799 62.4957 22.7883 63.9368 23.1485C64.3363 23.2493 64.7642 23.307 65.1779 23.307C67.6461 23.307 69.8146 21.5209 70.4564 18.9714C70.7991 17.5886 70.6562 16.1483 70.0427 14.9095C69.358 13.5268 68.1453 12.5185 66.7045 12.1584C66.305 12.0576 65.8771 12 65.4631 12Z" fill="#010101"/>
</svg>
