<svg width="80" height="80" viewBox="0 0 80 80" fill="none" xmlns="http://www.w3.org/2000/svg">
<circle cx="40" cy="40" r="35" fill="white" stroke="#F2F2F2" stroke-width="10"/>
<path d="M29.8401 28.1593L29.8401 28.1594L39.9998 38.3196L50.1599 28.1594C51.039 27.2802 52.4613 27.2802 53.3404 28.1594C54.2199 29.0385 54.2199 30.4608 53.3404 31.3399C53.3404 31.34 53.3404 31.34 53.3403 31.34L43.1807 41.5002L53.3403 51.6604C53.3404 51.6604 53.3404 51.6604 53.3404 51.6605C54.2199 52.5396 54.2199 53.9619 53.3404 54.841C52.9019 55.2795 52.3254 55.5 51.7501 55.5C51.1749 55.5 50.5983 55.2795 50.1599 54.841L39.9998 44.6808L29.8401 54.841L29.4866 54.4875L29.8401 54.841C29.4017 55.2795 28.8251 55.5 28.2499 55.5C27.6747 55.5 27.0977 55.2796 26.6594 54.8409C25.7801 53.9617 25.7802 52.5395 26.6596 51.6605C26.6596 51.6604 26.6596 51.6604 26.6597 51.6604L36.8193 41.5002L26.6597 31.34C26.6596 31.34 26.6596 31.34 26.6596 31.3399C25.7801 30.4608 25.7801 29.0385 26.6596 28.1594L29.8401 28.1593ZM29.8401 28.1593C28.9607 27.2803 27.5388 27.2802 26.6597 28.1593L29.8401 28.1593ZM52.9869 28.5129C52.303 27.829 51.1973 27.829 50.5134 28.5129L40.3534 38.6732L52.9869 28.5129Z" fill="url(#paint0_linear_221_1805)" stroke="#E83525"/>
<defs>
<linearGradient id="paint0_linear_221_1805" x1="40" y1="28" x2="40" y2="55" gradientUnits="userSpaceOnUse">
<stop stop-color="#FFABA4"/>
<stop offset="1" stop-color="#E83525"/>
</linearGradient>
</defs>
</svg>
