<svg width="37" height="34" viewBox="0 0 37 34" fill="none" xmlns="http://www.w3.org/2000/svg">
<g clip-path="url(#clip0_216_557)">
<path d="M36.495 17.5749C36.4693 16.5461 36.3921 15.5005 36.1607 14.497C35.7836 12.878 34.8923 11.5457 33.1952 11.0144C31.3353 10.4325 29.6726 10.9806 28.1728 12.1191C28.0956 12.1781 28.027 12.2961 28.027 12.3804C28.0184 13.5104 28.0184 14.6319 28.0184 15.7534C28.567 15.6439 29.0555 15.5005 29.5527 15.4584C30.2211 15.3993 30.8468 15.5342 31.2325 16.1583C31.6182 16.7738 31.8582 17.4569 31.8667 18.1736C31.8925 20.9311 31.8925 23.6885 31.8667 26.4375C31.8582 27.6518 31.2068 28.4613 30.0583 28.8492C29.9641 28.8829 29.8269 29.0178 29.8269 29.1022C29.8183 30.4598 29.8355 31.8175 29.844 33.1751C29.844 33.4028 29.9383 33.504 30.1955 33.504C32.6381 33.5293 35.0893 31.868 35.9379 29.5828C36.5207 28.0144 36.5893 26.3785 36.5807 24.7341C36.5636 22.3646 36.5636 19.9697 36.495 17.5749ZM31.6611 5.25496C32.8524 5.12847 34.0523 4.99355 35.2437 4.86706C35.4408 4.8502 35.5436 4.79961 35.5436 4.58035C35.5351 3.21428 35.5436 1.83978 35.5436 0.40625C33.598 0.625495 31.7211 0.827874 29.8526 1.04712C27.7099 1.29167 25.6101 1.55307 23.4674 1.78075C23.3988 2.6493 23.3302 3.56002 23.2703 4.44544C23.236 5.00198 23.2102 5.55854 23.1845 6.14881C24.3759 6.02232 25.5158 5.90427 26.6557 5.78621C28.327 5.60912 29.9898 5.43204 31.6611 5.25496ZM26.9042 19.2783C26.9643 16.9256 27.0157 14.5729 27.0843 12.2286C27.1186 10.8879 27.1785 9.5471 27.2128 8.19794C27.2214 7.80156 27.2128 7.40525 27.2128 6.99206C27.0157 6.99206 26.8785 6.98363 26.75 6.99206C25.6872 7.04266 24.6244 7.11858 23.5531 7.14387C23.176 7.1523 23.0902 7.29567 23.0817 7.61605C23.0646 8.35817 23.0303 9.09179 23.0046 9.83384C22.8932 12.743 22.7817 15.6607 22.6788 18.5699C22.6617 18.9578 22.6788 19.3458 22.6788 19.8011C24.033 19.7589 25.3273 19.7168 26.63 19.6746C26.9128 19.6661 26.9042 19.4806 26.9042 19.2783ZM28.567 28.807C27.547 28.6974 27.0157 27.7277 26.9814 26.7833C26.9385 25.6448 26.9128 24.498 26.8957 23.3596C26.8957 23.0729 26.81 22.9549 26.4929 22.9633C25.3616 22.997 24.2216 23.0223 23.0817 23.0307C22.7731 23.0307 22.7217 23.1572 22.7303 23.4187C22.7474 24.1439 22.7388 24.8691 22.7646 25.5943C22.7989 26.7073 22.7646 27.8373 22.936 28.9336C23.1674 30.3334 23.8616 31.5729 25.0701 32.3909C26.1415 33.116 27.4014 33.4028 28.7813 33.563C28.7813 32.0114 28.7813 30.5273 28.7727 29.0347C28.7813 28.9588 28.6527 28.8155 28.567 28.807ZM0.266202 16.6557H3.96022C3.96022 15.5764 3.94307 14.5477 3.96022 13.5189C4.00307 11.4192 4.60303 10.7698 6.70288 10.5169C6.74573 10.5085 6.78001 10.4662 6.86572 10.4157V6.98363C4.36305 6.70536 1.61182 8.43403 0.711886 10.8373C-0.0166345 12.7346 0.369052 14.6994 0.266202 16.6557ZM6.24005 25.5943C4.59446 25.5268 4.10592 25.0124 4.07164 23.3849C4.04593 22.1453 4.07164 20.9057 4.04593 19.6661C4.03735 19.1433 3.97736 18.6121 3.93451 18.0808H0.283343C0.283343 20.0034 0.189065 21.8502 0.300485 23.6885C0.540468 27.4578 2.58889 29.5744 6.18863 30.0045C6.6943 30.0635 6.88286 29.9285 6.86572 29.4311C6.84001 28.3602 6.84858 27.2807 6.86572 26.2098C6.87429 25.7461 6.70288 25.6111 6.24005 25.5943ZM15.4194 12.2371C15.428 13.0045 15.428 13.7802 15.4365 14.5477C15.4365 15.0704 15.4365 15.5932 15.4365 16.1076H19.6362C19.6362 14.3284 19.7134 12.6419 19.6105 10.9722C19.5248 9.47967 18.7877 8.25695 17.4764 7.43053C16.1308 6.57887 14.6308 6.45238 13.0882 6.57887C12.9424 6.5873 12.711 6.81498 12.7024 6.9499C12.6681 8.03772 12.6853 9.13393 12.6853 10.2554C13.011 10.2723 13.2424 10.2892 13.4738 10.2977C14.8795 10.3482 15.3937 10.8626 15.4194 12.2371ZM7.62852 33.6389H11.7939V2.89385C10.3626 3.04564 8.99986 3.18899 7.62852 3.33234V33.6389ZM19.6705 17.5749C18.4449 17.5749 17.3136 17.5918 16.1822 17.5665C15.6508 17.5496 15.4793 17.7352 15.4793 18.2579C15.4965 19.7336 15.4451 21.2009 15.4537 22.6766C15.4623 24.557 14.7251 25.5774 12.8996 25.7545C12.8395 25.7629 12.7796 25.8135 12.7282 25.8388V29.684C16.3193 29.878 18.6163 27.9975 19.3448 25.2738C20.039 22.7441 19.5163 20.1721 19.6705 17.5749Z" fill="url(#paint0_linear_216_557)"/>
</g>
<defs>
<linearGradient id="paint0_linear_216_557" x1="2.49804" y1="17.0216" x2="36.8436" y2="17.0216" gradientUnits="userSpaceOnUse">
<stop offset="0.0344" stop-color="#273580"/>
<stop offset="0.2149" stop-color="#46317C"/>
<stop offset="0.6071" stop-color="#942673"/>
<stop offset="0.8615" stop-color="#CA1E6D"/>
</linearGradient>
<clipPath id="clip0_216_557">
<rect width="37" height="34" fill="white"/>
</clipPath>
</defs>
</svg>
