<svg width="81" height="80" viewBox="0 0 81 80" fill="none" xmlns="http://www.w3.org/2000/svg">
<g clip-path="url(#clip0_221_1764)">
<path d="M46.8216 33.1539L36.6653 43.3099L32.5117 39.153C31.8639 38.518 30.8269 38.518 30.1789 39.153C29.5216 39.7973 29.511 40.8524 30.1551 41.5098L35.4871 46.8451C35.7996 47.1578 36.2234 47.3333 36.6655 47.3333C37.1074 47.3333 37.5312 47.1578 37.8437 46.8451L49.2021 35.4866C49.8463 34.8293 49.8357 33.774 49.1783 33.1298C48.521 32.4857 47.4659 32.4963 46.8216 33.1539ZM67.1316 12.5107C66.943 11.6095 66.0597 11.0317 65.1584 11.2201C56.9276 12.9581 48.3448 11.203 41.4572 6.37305C40.8831 5.9694 40.1173 5.9694 39.5431 6.37305C32.6557 11.2032 24.0728 12.9585 15.842 11.2201C15.7301 11.1967 15.6161 11.1849 15.5018 11.1849C14.581 11.1842 13.8341 11.9301 13.8335 12.8509V39.5794C13.839 49.3668 18.5509 58.5546 26.4963 64.2702L39.5301 73.6159C39.8127 73.8193 40.1521 73.9288 40.5002 73.9284C40.8483 73.9288 41.1876 73.8195 41.4702 73.6161L54.5041 64.2702C62.4494 58.5546 67.1613 49.3668 67.1668 39.5794V12.8509C67.1668 12.7366 67.155 12.6226 67.1316 12.5107ZM63.8335 39.5794C63.8298 48.2926 59.6363 56.4725 52.564 61.5619L40.5002 70.2109L28.4364 61.5619C21.364 56.4723 17.1705 48.2926 17.1668 39.5794V14.8431C25.3061 16.0589 33.6085 14.2464 40.5002 9.7487C47.3925 14.2452 55.6945 16.0577 63.8335 14.8431V39.5794Z" fill="#B7B7B7"/>
<rect x="0.5" width="80" height="80" fill="url(#paint0_linear_221_1764)"/>
</g>
<defs>
<linearGradient id="paint0_linear_221_1764" x1="40.5" y1="0" x2="40.5" y2="72.6316" gradientUnits="userSpaceOnUse">
<stop stop-color="#F2F2F2" stop-opacity="0"/>
<stop offset="0.697917" stop-color="#F2F2F2" stop-opacity="0.75"/>
<stop offset="1" stop-color="#F2F2F2"/>
</linearGradient>
<clipPath id="clip0_221_1764">
<rect width="80" height="80" fill="white" transform="translate(0.5)"/>
</clipPath>
</defs>
</svg>
